<svg width="22" height="22" viewBox="0 0 22 22" fill="none" xmlns="http://www.w3.org/2000/svg">
<path d="M9.91549 17.2515C9.74132 17.2515 9.56715 17.1874 9.42965 17.0499L3.86539 11.4857C3.59956 11.2199 3.59956 10.7799 3.86539 10.514L9.42965 4.94986C9.69549 4.68403 10.1355 4.68403 10.4013 4.94986C10.6672 5.2157 10.6672 5.6557 10.4013 5.92153L5.32292 10.9999L10.4013 16.0782C10.6672 16.344 10.6672 16.784 10.4013 17.0499C10.273 17.1874 10.0897 17.2515 9.91549 17.2515Z" fill="#585E66"/>
<path d="M18.1022 11.6875H4.50782C4.13198 11.6875 3.82031 11.3758 3.82031 11C3.82031 10.6242 4.13198 10.3125 4.50782 10.3125H18.1022C18.478 10.3125 18.7897 10.6242 18.7897 11C18.7897 11.3758 18.478 11.6875 18.1022 11.6875Z" fill="#585E66"/>
</svg>
