<svg width="50" height="50" viewBox="0 0 50 50" fill="none" xmlns="http://www.w3.org/2000/svg">
<rect width="50" height="50" rx="25" fill="#FC9B00"/>
<path d="M32.5 25.9375H17.5C16.9875 25.9375 16.5625 25.5125 16.5625 25C16.5625 24.4875 16.9875 24.0625 17.5 24.0625H32.5C33.0125 24.0625 33.4375 24.4875 33.4375 25C33.4375 25.5125 33.0125 25.9375 32.5 25.9375Z" fill="white"/>
<path d="M25 33.4375C24.4875 33.4375 24.0625 33.0125 24.0625 32.5V17.5C24.0625 16.9875 24.4875 16.5625 25 16.5625C25.5125 16.5625 25.9375 16.9875 25.9375 17.5V32.5C25.9375 33.0125 25.5125 33.4375 25 33.4375Z" fill="white"/>
</svg>
