<svg width="40" height="40" viewBox="0 0 40 40" fill="none" xmlns="http://www.w3.org/2000/svg">
<rect width="40" height="40" rx="8" fill="#FC9B00"/>
<path d="M24.1391 10.96L15.1091 13.96C9.03914 15.99 9.03914 19.3 15.1091 21.32L17.7891 22.21L18.6791 24.89C20.6991 30.96 24.0191 30.96 26.0391 24.89L29.0491 15.87C30.3891 11.82 28.1891 9.61004 24.1391 10.96ZM24.4591 16.34L20.6591 20.16C20.5091 20.31 20.3191 20.38 20.1291 20.38C19.9391 20.38 19.7491 20.31 19.5991 20.16C19.3091 19.87 19.3091 19.39 19.5991 19.1L23.3991 15.28C23.6891 14.99 24.1691 14.99 24.4591 15.28C24.7491 15.57 24.7491 16.05 24.4591 16.34Z" fill="white"/>
</svg>
