<svg width="16" height="16" viewBox="0 0 16 16" fill="none" xmlns="http://www.w3.org/2000/svg">
<path d="M11.334 14.0168H4.66732C3.47912 14.0168 2.56316 13.6755 1.94422 13.0566C1.32528 12.4377 0.983984 11.5217 0.983984 10.3335V5.66683C0.983984 4.47864 1.32528 3.56267 1.94422 2.94373C2.56316 2.32479 3.47912 1.9835 4.66732 1.9835H11.334C12.5222 1.9835 13.4381 2.32479 14.0571 2.94373C14.676 3.56267 15.0173 4.47864 15.0173 5.66683V10.3335C15.0173 11.5217 14.676 12.4377 14.0571 13.0566C13.4381 13.6755 12.5222 14.0168 11.334 14.0168ZM4.66732 2.6835C3.69194 2.6835 2.93817 2.92051 2.42959 3.4291C1.921 3.93768 1.68398 4.69145 1.68398 5.66683V10.3335C1.68398 11.3089 1.921 12.0626 2.42959 12.5712C2.93817 13.0798 3.69194 13.3168 4.66732 13.3168H11.334C12.3094 13.3168 13.0631 13.0798 13.5717 12.5712C14.0803 12.0626 14.3173 11.3089 14.3173 10.3335V5.66683C14.3173 4.69145 14.0803 3.93768 13.5717 3.4291C13.0631 2.92051 12.3094 2.6835 11.334 2.6835H4.66732Z" fill="#585E66" stroke="#585E66" stroke-width="0.3"/>
<path d="M6.53399 7.93706L6.534 7.93706L6.53282 7.93611L4.44668 6.26987C4.29477 6.14605 4.27059 5.92691 4.38895 5.78123C4.5127 5.62893 4.73213 5.60459 4.87795 5.72307L4.87893 5.72385L6.96531 7.3903C6.96537 7.39034 6.96542 7.39039 6.96548 7.39044C7.2502 7.61888 7.6268 7.72832 7.99586 7.72832C8.36497 7.72832 8.74161 7.61886 9.02634 7.39037C9.02636 7.39034 9.02639 7.39032 9.02642 7.3903L11.1128 5.72385L11.1128 5.72386L11.1138 5.72307C11.2634 5.60151 11.4858 5.627 11.5996 5.77722L11.5996 5.77728L11.6028 5.78123C11.7243 5.93084 11.6988 6.15328 11.5486 6.26708L11.5486 6.26704L11.5456 6.26944L9.45892 7.93611L9.45891 7.93609L9.45686 7.93779C9.06134 8.26533 8.5302 8.42998 7.9992 8.42998C7.46846 8.42998 6.93674 8.26545 6.53399 7.93706Z" fill="#585E66" stroke="#585E66" stroke-width="0.3"/>
</svg>
